<mxfile host="app.diagrams.net" modified="2023-09-24T22:24:32.242Z" agent="Mozilla/5.0 (Windows NT 10.0; Win64; x64; rv:109.0) Gecko/20100101 Firefox/117.0" etag="M_EEGkF9S5OXnKHU75L4" version="21.7.1" type="github">
  <diagram name="Sivu-1" id="u8w1255cLJUokRJfRU84">
    <mxGraphModel dx="1143" dy="616" grid="1" gridSize="5" guides="1" tooltips="1" connect="1" arrows="1" fold="1" page="1" pageScale="1" pageWidth="827" pageHeight="1169" math="1" shadow="0">
      <root>
        <mxCell id="0" />
        <mxCell id="1" parent="0" />
        <mxCell id="19g5wpBG-z4xOQPj4vC4-21" value="" style="endArrow=none;html=1;rounded=0;exitX=0.498;exitY=0.138;exitDx=0;exitDy=0;exitPerimeter=0;" parent="1" source="19g5wpBG-z4xOQPj4vC4-19" edge="1">
          <mxGeometry width="50" height="50" relative="1" as="geometry">
            <mxPoint x="360" y="370" as="sourcePoint" />
            <mxPoint x="360" y="350" as="targetPoint" />
          </mxGeometry>
        </mxCell>
        <mxCell id="ajAWkNfieeJ6ma5MIzeF-14" style="edgeStyle=orthogonalEdgeStyle;rounded=0;orthogonalLoop=1;jettySize=auto;html=1;" parent="1" source="ajAWkNfieeJ6ma5MIzeF-3" target="ajAWkNfieeJ6ma5MIzeF-12" edge="1">
          <mxGeometry relative="1" as="geometry" />
        </mxCell>
        <mxCell id="ajAWkNfieeJ6ma5MIzeF-5" value="&lt;font style=&quot;font-size: 18px;&quot;&gt;$$LMS$$&lt;/font&gt;" style="rounded=0;whiteSpace=wrap;html=1;" parent="1" vertex="1">
          <mxGeometry x="180" y="320" width="100" height="40" as="geometry" />
        </mxCell>
        <mxCell id="ajAWkNfieeJ6ma5MIzeF-7" value="" style="endArrow=classic;html=1;rounded=0;entryX=0;entryY=0.5;entryDx=0;entryDy=0;" parent="1" target="ajAWkNfieeJ6ma5MIzeF-5" edge="1">
          <mxGeometry width="50" height="50" relative="1" as="geometry">
            <mxPoint x="90" y="220" as="sourcePoint" />
            <mxPoint x="170" y="280" as="targetPoint" />
            <Array as="points">
              <mxPoint x="90" y="310" />
              <mxPoint x="90" y="340" />
            </Array>
          </mxGeometry>
        </mxCell>
        <mxCell id="19g5wpBG-z4xOQPj4vC4-25" style="edgeStyle=orthogonalEdgeStyle;rounded=0;orthogonalLoop=1;jettySize=auto;html=1;entryX=0;entryY=0.5;entryDx=0;entryDy=0;" parent="1" source="ajAWkNfieeJ6ma5MIzeF-12" target="ajAWkNfieeJ6ma5MIzeF-1" edge="1">
          <mxGeometry relative="1" as="geometry" />
        </mxCell>
        <mxCell id="ajAWkNfieeJ6ma5MIzeF-12" value="&lt;font style=&quot;font-size: 18px;&quot;&gt;$$S(z)$$&lt;/font&gt;" style="rounded=0;whiteSpace=wrap;html=1;" parent="1" vertex="1">
          <mxGeometry x="420" y="200" width="80" height="40" as="geometry" />
        </mxCell>
        <mxCell id="ajAWkNfieeJ6ma5MIzeF-18" value="" style="endArrow=classic;html=1;rounded=0;exitX=0.5;exitY=0;exitDx=0;exitDy=0;" parent="1" source="ajAWkNfieeJ6ma5MIzeF-5" edge="1">
          <mxGeometry width="50" height="50" relative="1" as="geometry">
            <mxPoint x="220" y="300" as="sourcePoint" />
            <mxPoint x="250" y="180" as="targetPoint" />
            <Array as="points">
              <mxPoint x="230" y="260" />
              <mxPoint x="210" y="260" />
            </Array>
          </mxGeometry>
        </mxCell>
        <mxCell id="ajAWkNfieeJ6ma5MIzeF-3" value="&lt;font style=&quot;font-size: 18px;&quot;&gt;$$W(z)$$&lt;/font&gt;" style="rounded=0;whiteSpace=wrap;html=1;" parent="1" vertex="1">
          <mxGeometry x="190" y="200" width="80" height="40" as="geometry" />
        </mxCell>
        <mxCell id="ajAWkNfieeJ6ma5MIzeF-20" value="&lt;font size=&quot;1&quot; color=&quot;#0000cc&quot;&gt;&lt;i style=&quot;font-size: 14px;&quot;&gt;$$d(n)$$&lt;/i&gt;&lt;/font&gt;" style="text;html=1;strokeColor=none;fillColor=none;align=center;verticalAlign=middle;whiteSpace=wrap;rounded=0;" parent="1" vertex="1">
          <mxGeometry x="510" y="120" width="60" height="30" as="geometry" />
        </mxCell>
        <mxCell id="ajAWkNfieeJ6ma5MIzeF-21" value="&lt;font size=&quot;1&quot; color=&quot;#cc0000&quot;&gt;&lt;i style=&quot;font-size: 14px;&quot;&gt;$$y(n)$$&lt;/i&gt;&lt;/font&gt;" style="text;html=1;strokeColor=none;fillColor=none;align=center;verticalAlign=middle;whiteSpace=wrap;rounded=0;" parent="1" vertex="1">
          <mxGeometry x="495" y="190" width="60" height="30" as="geometry" />
        </mxCell>
        <mxCell id="ajAWkNfieeJ6ma5MIzeF-22" value="&lt;font size=&quot;1&quot; color=&quot;#009900&quot;&gt;&lt;i style=&quot;font-size: 14px;&quot;&gt;$$e(n)$$&lt;/i&gt;&lt;/font&gt;" style="text;html=1;strokeColor=none;fillColor=none;align=center;verticalAlign=middle;whiteSpace=wrap;rounded=0;" parent="1" vertex="1">
          <mxGeometry x="570" y="190" width="60" height="30" as="geometry" />
        </mxCell>
        <mxCell id="ajAWkNfieeJ6ma5MIzeF-23" value="&lt;font size=&quot;1&quot; color=&quot;#7f00ff&quot;&gt;&lt;i style=&quot;font-size: 14px;&quot;&gt;$$u(n)$$&lt;/i&gt;&lt;/font&gt;" style="text;html=1;strokeColor=none;fillColor=none;align=center;verticalAlign=middle;whiteSpace=wrap;rounded=0;" parent="1" vertex="1">
          <mxGeometry x="287.5" y="190" width="60" height="30" as="geometry" />
        </mxCell>
        <mxCell id="CBB9v3UhZUv1EWWix4jz-1" value="&lt;font style=&quot;font-size: 18px;&quot;&gt;$$\hat {S}(z)$$&lt;/font&gt;" style="rounded=0;whiteSpace=wrap;html=1;" parent="1" vertex="1">
          <mxGeometry x="70" y="245" width="40" height="70" as="geometry" />
        </mxCell>
        <mxCell id="CBB9v3UhZUv1EWWix4jz-2" value="&lt;font size=&quot;1&quot; color=&quot;#cc6600&quot;&gt;&lt;i style=&quot;font-size: 14px;&quot;&gt;$$\hat{x}(n)$$&lt;/i&gt;&lt;/font&gt;" style="text;html=1;strokeColor=none;fillColor=none;align=center;verticalAlign=middle;whiteSpace=wrap;rounded=0;" parent="1" vertex="1">
          <mxGeometry x="105" y="310" width="60" height="30" as="geometry" />
        </mxCell>
        <mxCell id="19g5wpBG-z4xOQPj4vC4-1" value="&lt;font style=&quot;font-size: 18px;&quot;&gt;$$\hat {S}(z)$$&lt;/font&gt;" style="rounded=0;whiteSpace=wrap;html=1;" parent="1" vertex="1">
          <mxGeometry x="340" y="245" width="40" height="70" as="geometry" />
        </mxCell>
        <mxCell id="19g5wpBG-z4xOQPj4vC4-2" value="" style="endArrow=classic;html=1;rounded=0;" parent="1" source="19g5wpBG-z4xOQPj4vC4-3" edge="1">
          <mxGeometry width="50" height="50" relative="1" as="geometry">
            <mxPoint x="360" y="277.88" as="sourcePoint" />
            <mxPoint x="360" y="457.88" as="targetPoint" />
          </mxGeometry>
        </mxCell>
        <mxCell id="19g5wpBG-z4xOQPj4vC4-3" value="$$+$$" style="ellipse;whiteSpace=wrap;html=1;aspect=fixed;" parent="1" vertex="1">
          <mxGeometry x="350" y="437.88" width="20" height="20" as="geometry" />
        </mxCell>
        <mxCell id="19g5wpBG-z4xOQPj4vC4-6" value="" style="endArrow=classic;html=1;rounded=0;entryX=0.5;entryY=0;entryDx=0;entryDy=0;" parent="1" target="19g5wpBG-z4xOQPj4vC4-1" edge="1">
          <mxGeometry width="50" height="50" relative="1" as="geometry">
            <mxPoint x="360" y="220" as="sourcePoint" />
            <mxPoint x="410" y="170" as="targetPoint" />
          </mxGeometry>
        </mxCell>
        <mxCell id="19g5wpBG-z4xOQPj4vC4-7" value="" style="endArrow=classic;html=1;rounded=0;entryX=1;entryY=0.5;entryDx=0;entryDy=0;" parent="1" target="19g5wpBG-z4xOQPj4vC4-3" edge="1">
          <mxGeometry width="50" height="50" relative="1" as="geometry">
            <mxPoint x="600" y="220" as="sourcePoint" />
            <mxPoint x="610" y="280" as="targetPoint" />
            <Array as="points">
              <mxPoint x="600" y="448" />
            </Array>
          </mxGeometry>
        </mxCell>
        <mxCell id="19g5wpBG-z4xOQPj4vC4-8" value="" style="endArrow=classic;html=1;rounded=0;exitX=0;exitY=0.5;exitDx=0;exitDy=0;entryX=0;entryY=0.5;entryDx=0;entryDy=0;" parent="1" source="19g5wpBG-z4xOQPj4vC4-3" target="ajAWkNfieeJ6ma5MIzeF-3" edge="1">
          <mxGeometry width="50" height="50" relative="1" as="geometry">
            <mxPoint x="160" y="420" as="sourcePoint" />
            <mxPoint x="90" y="220" as="targetPoint" />
            <Array as="points">
              <mxPoint x="40" y="448" />
              <mxPoint x="40" y="220" />
            </Array>
          </mxGeometry>
        </mxCell>
        <mxCell id="19g5wpBG-z4xOQPj4vC4-10" value="" style="verticalLabelPosition=bottom;verticalAlign=top;html=1;shape=mxgraph.basic.arc;startAngle=0.5;endAngle=0;rotation=-180;" parent="1" vertex="1">
          <mxGeometry x="350" y="330" width="20" height="20" as="geometry" />
        </mxCell>
        <mxCell id="19g5wpBG-z4xOQPj4vC4-11" value="" style="endArrow=classic;html=1;rounded=0;entryX=0.5;entryY=0;entryDx=0;entryDy=0;exitX=0.5;exitY=1;exitDx=0;exitDy=0;" parent="1" source="19g5wpBG-z4xOQPj4vC4-19" target="19g5wpBG-z4xOQPj4vC4-3" edge="1">
          <mxGeometry width="50" height="50" relative="1" as="geometry">
            <mxPoint x="360" y="422.88" as="sourcePoint" />
            <mxPoint x="410" y="357.88" as="targetPoint" />
          </mxGeometry>
        </mxCell>
        <mxCell id="19g5wpBG-z4xOQPj4vC4-12" value="" style="endArrow=none;html=1;rounded=0;entryX=0.5;entryY=1;entryDx=0;entryDy=0;" parent="1" source="19g5wpBG-z4xOQPj4vC4-10" target="19g5wpBG-z4xOQPj4vC4-1" edge="1">
          <mxGeometry width="50" height="50" relative="1" as="geometry">
            <mxPoint x="310" y="370" as="sourcePoint" />
            <mxPoint x="360" y="320" as="targetPoint" />
          </mxGeometry>
        </mxCell>
        <mxCell id="19g5wpBG-z4xOQPj4vC4-13" value="" style="endArrow=none;html=1;rounded=0;exitX=0;exitY=0.5;exitDx=0;exitDy=0;exitPerimeter=0;" parent="1" source="19g5wpBG-z4xOQPj4vC4-10" edge="1">
          <mxGeometry width="50" height="50" relative="1" as="geometry">
            <mxPoint x="380" y="340" as="sourcePoint" />
            <mxPoint x="600" y="340" as="targetPoint" />
          </mxGeometry>
        </mxCell>
        <mxCell id="19g5wpBG-z4xOQPj4vC4-14" value="" style="endArrow=classic;html=1;rounded=0;exitX=0.126;exitY=0.496;exitDx=0;exitDy=0;exitPerimeter=0;entryX=1;entryY=0.5;entryDx=0;entryDy=0;" parent="1" source="19g5wpBG-z4xOQPj4vC4-10" target="ajAWkNfieeJ6ma5MIzeF-5" edge="1">
          <mxGeometry width="50" height="50" relative="1" as="geometry">
            <mxPoint x="360" y="340" as="sourcePoint" />
            <mxPoint x="290" y="340" as="targetPoint" />
          </mxGeometry>
        </mxCell>
        <mxCell id="19g5wpBG-z4xOQPj4vC4-16" value="" style="triangle;whiteSpace=wrap;html=1;rotation=90;" parent="1" vertex="1">
          <mxGeometry x="346.25" y="366.63" width="27.5" height="30" as="geometry" />
        </mxCell>
        <mxCell id="19g5wpBG-z4xOQPj4vC4-19" value="$$-1$$" style="text;html=1;strokeColor=none;fillColor=none;align=center;verticalAlign=middle;whiteSpace=wrap;rounded=0;" parent="1" vertex="1">
          <mxGeometry x="350" y="366.63" width="20" height="19.62" as="geometry" />
        </mxCell>
        <mxCell id="19g5wpBG-z4xOQPj4vC4-22" value="&lt;div style=&quot;font-size: 15px;&quot;&gt;&lt;font style=&quot;font-size: 14px;&quot; color=&quot;#0000cc&quot;&gt;$$\hat{d}(n)$$&lt;/font&gt;&lt;/div&gt;" style="text;html=1;strokeColor=none;fillColor=none;align=center;verticalAlign=middle;whiteSpace=wrap;rounded=0;" parent="1" vertex="1">
          <mxGeometry x="45" y="190" width="60" height="30" as="geometry" />
        </mxCell>
        <mxCell id="_0otqkgH3KjDAw3umN4p-4" style="edgeStyle=orthogonalEdgeStyle;rounded=0;orthogonalLoop=1;jettySize=auto;html=1;" edge="1" parent="1" source="ajAWkNfieeJ6ma5MIzeF-1">
          <mxGeometry relative="1" as="geometry">
            <mxPoint x="700" y="220" as="targetPoint" />
          </mxGeometry>
        </mxCell>
        <mxCell id="ajAWkNfieeJ6ma5MIzeF-1" value="$$+$$" style="ellipse;whiteSpace=wrap;html=1;aspect=fixed;" parent="1" vertex="1">
          <mxGeometry x="550" y="210" width="20" height="20" as="geometry" />
        </mxCell>
        <mxCell id="19g5wpBG-z4xOQPj4vC4-26" value="" style="endArrow=classic;html=1;rounded=0;entryX=0.5;entryY=0;entryDx=0;entryDy=0;" parent="1" target="ajAWkNfieeJ6ma5MIzeF-1" edge="1">
          <mxGeometry width="50" height="50" relative="1" as="geometry">
            <mxPoint x="560" y="120" as="sourcePoint" />
            <mxPoint x="590" y="130" as="targetPoint" />
          </mxGeometry>
        </mxCell>
        <mxCell id="19g5wpBG-z4xOQPj4vC4-27" value="&lt;font size=&quot;1&quot; color=&quot;#cc0000&quot;&gt;&lt;i style=&quot;font-size: 14px;&quot;&gt;$$\hat{y}(n)$$&lt;/i&gt;&lt;/font&gt;" style="text;html=1;strokeColor=none;fillColor=none;align=center;verticalAlign=middle;whiteSpace=wrap;rounded=0;" parent="1" vertex="1">
          <mxGeometry x="347.5" y="397.88" width="60" height="30" as="geometry" />
        </mxCell>
      </root>
    </mxGraphModel>
  </diagram>
</mxfile>
